Coordinates
version=1
nRows=8
nColumns=40
inDegrees=yes

Units are S.I. units (second, meters, Newtons, ...)
If the header above contains a line with 'inDegrees', this indicates whether rotational values are in degrees (yes) or radians (no).

endheader
time	pelvis_tilt	pelvis_list	pelvis_rotation	pelvis_tx	pelvis_ty	pelvis_tz	hip_flexion_r	hip_adduction_r	hip_rotation_r	knee_angle_r	knee_angle_r_beta	ankle_angle_r	subtalar_angle_r	mtp_angle_r	hip_flexion_l	hip_adduction_l	hip_rotation_l	knee_angle_l	knee_angle_l_beta	ankle_angle_l	subtalar_angle_l	mtp_angle_l	lumbar_extension	lumbar_bending	lumbar_rotation	arm_flex_r	arm_add_r	arm_rot_r	elbow_flex_r	pro_sup_r	wrist_flex_r	wrist_dev_r	arm_flex_l	arm_add_l	arm_rot_l	elbow_flex_l	pro_sup_l	wrist_flex_l	wrist_dev_l
      7.87500000	      8.91549145	      2.85551821	   -173.22054466	      0.32151477	      0.86110808	     -0.59481059	     29.66187425	    -12.17127793	    -15.04492209	     24.79119109	      0.43268791	      4.47658185	      0.00000000	      0.00000000	     33.81162593	    -12.28879166	     -2.01687749	     25.13385508	      0.43866852	      2.46763127	      0.00000000	      0.00000000	    -28.97539513	      1.11403726	      1.37191668	     24.08937554	    -17.44741438	     38.34814719	     22.57530604	     78.13309862	      0.00000000	      0.00000000	     35.18678874	     -8.95450968	     46.75779069	     12.81205350	     45.44288079	      0.00000000	      0.00000000
      7.88000000	      8.14811601	      2.87905738	   -173.25114779	      0.31965376	      0.86303777	     -0.59495253	     28.46754096	    -11.97531083	    -15.41743157	     24.36643820	      0.42527457	      4.38656245	      0.00000000	      0.00000000	     32.65013169	    -12.52428044	     -2.48359342	     24.78056021	      0.43250237	      2.44041199	      0.00000000	      0.00000000	    -29.17304193	      1.09607328	      1.52818193	     23.71639308	    -17.40986422	     37.91258340	     22.48114359	     79.45521426	      0.00000000	      0.00000000	     34.91959560	     -9.24050780	     48.17685998	     13.03198791	     46.09256642	      0.00000000	      0.00000000
      7.88500000	      8.42054428	      3.20508063	   -172.91837694	      0.31868730	      0.86294381	     -0.59442893	     28.47531071	    -11.80876918	    -15.85856777	     24.15450405	      0.42157562	      4.46080286	      0.00000000	      0.00000000	     32.99917677	    -12.53180503	     -1.66902258	     24.73353912	      0.43168169	      2.59714259	      0.00000000	      0.00000000	    -28.16649933	      1.50904808	      1.33136434	     23.19466937	    -17.20949560	     37.23795964	     22.23112559	     78.85463592	      0.00000000	      0.00000000	     34.46696463	     -9.03399529	     47.75161682	     12.75954554	     46.06971053	      0.00000000	      0.00000000
      7.89000000	      7.59925849	      3.21420398	   -173.00171074	      0.31683232	      0.86500516	     -0.59460744	     27.20163764	    -11.56946367	    -16.14246964	     23.63014481	      0.41242383	      4.27669482	      0.00000000	      0.00000000	     31.76717484	    -12.80635090	     -2.25764167	     24.39585436	      0.42578798	      2.52289869	      0.00000000	      0.00000000	    -28.42494064	      1.46591839	      1.55564715	     22.84301154	    -17.27032659	     37.02305449	     22.26487858	     80.35590423	      0.00000000	      0.00000000	     34.26838028	     -9.30194342	     49.52951210	     12.90326214	     46.72025143	      0.00000000	      0.00000000
      7.89500000	      7.90880904	      3.51345079	   -172.72322043	      0.31546670	      0.86481257	     -0.59407128	     27.31804703	    -11.47224161	    -16.78578576	     23.60385893	      0.41196505	      4.45695730	      0.00000000	      0.00000000	     32.15576514	    -12.87312109	     -1.73604375	     24.45776597	      0.42686854	      2.76413155	      0.00000000	      0.00000000	    -27.34096443	      1.81664966	      1.38407447	     22.15760657	    -17.14944357	     36.37199238	     22.29897498	     79.63042557	      0.00000000	      0.00000000	     33.57686769	     -9.24353947	     48.83744732	     13.04744442	     46.65428757	      0.00000000	      0.00000000
      7.90000000	      7.81951688	      3.59113520	   -172.51235587	      0.31458998	      0.86551872	     -0.59373053	     26.84067598	    -11.32859659	    -16.77951047	     23.05224628	      0.40233760	      4.34046679	      0.00000000	      0.00000000	     31.91994743	    -12.76720609	     -1.21297956	     24.18890552	      0.42217604	      2.71985843	      0.00000000	      0.00000000	    -26.81858675	      1.93636756	      1.23348759	     21.96670673	    -16.94437220	     36.12384577	     21.75119122	     80.33648810	      0.00000000	      0.00000000	     33.51343100	     -8.80904303	     48.95480146	     12.11697362	     46.68905452	      0.00000000	      0.00000000
      7.90500000	      6.82043638	      3.48880433	   -172.73641010	      0.31247117	      0.86787356	     -0.59415610	     25.35444582	    -11.08840378	    -17.03626798	     22.43882570	      0.39163139	      4.07417129	      0.00000000	      0.00000000	     30.34675119	    -13.06831030	     -2.11915484	     23.72415065	      0.41406454	      2.60451870	      0.00000000	      0.00000000	    -27.28609183	      1.72840926	      1.59541213	     21.60565424	    -17.03106871	     36.02091433	     21.80844039	     81.58227674	      0.00000000	      0.00000000	     33.27186701	     -9.28883169	     51.07529240	     12.62801875	     47.40826425	      0.00000000	      0.00000000
      7.91000000	      6.68113306	      3.45842255	   -172.87191418	      0.31105205	      0.86858071	     -0.59436340	     24.95527628	    -10.94071759	    -16.88764682	     22.11390154	      0.38596039	      4.14208861	      0.00000000	      0.00000000	     29.90372242	    -13.14256873	     -2.31913658	     23.48897441	      0.40995994	      2.68329925	      0.00000000	      0.00000000	    -26.79140518	      1.57507773	      1.68368759	     21.24081500	    -16.92706578	     36.06185322	     21.64374843	     81.62100972	      0.00000000	      0.00000000	     32.94725410	     -9.62070405	     52.64892696	     12.77454317	     48.30039236	      0.00000000	      0.00000000
